<svg xmlns="http://www.w3.org/2000/svg" width="148" height="14" viewBox="0 0 148 14">
  <g fill-rule="evenodd">
    <rect width="4" height="4" rx="2"/>
    <rect width="4" height="4" x="16" rx="2"/>
    <rect width="4" height="4" x="32" rx="2"/>
    <rect width="4" height="4" x="48" rx="2"/>
    <rect width="4" height="4" x="64" rx="2"/>
    <rect width="4" height="4" x="80" rx="2"/>
    <rect width="4" height="4" x="96" rx="2"/>
    <rect width="4" height="4" x="112" rx="2"/>
    <rect width="4" height="4" x="128" rx="2"/>
    <rect width="4" height="4" x="144" rx="2"/>
    <g transform="translate(8 10)">
      <rect width="4" height="4" rx="2"/>
      <rect width="4" height="4" x="16" rx="2"/>
      <rect width="4" height="4" x="32" rx="2"/>
      <rect width="4" height="4" x="48" rx="2"/>
      <rect width="4" height="4" x="64" rx="2"/>
      <rect width="4" height="4" x="80" rx="2"/>
      <rect width="4" height="4" x="96" rx="2"/>
      <rect width="4" height="4" x="112" rx="2"/>
      <rect width="4" height="4" x="128" rx="2"/>
    </g>
  </g>
</svg>
